<?xml version="1.0" encoding="UTF-8"?>
<svg xmlns="http://www.w3.org/2000/svg" xmlns:xlink="http://www.w3.org/1999/xlink" viewBox="0 0 100 100" width="100px" height="100px">
<g id="surface5405562">
<path style=" stroke:none;fill-rule:nonzero;fill:rgb(20.392157%,59.607846%,85.882354%);fill-opacity:1;" d="M 50 100 C 22.386719 100 0 77.613281 0 50 C 0 22.386719 22.386719 0 50 0 C 77.613281 0 100 22.386719 100 50 C 100 77.613281 77.613281 100 50 100 Z M 50 100 "/>
<path style=" stroke:none;fill-rule:nonzero;fill:rgb(0%,0%,0%);fill-opacity:1;" d="M 53.957031 10.417969 C 39.238281 10.417969 35.417969 21.609375 34.136719 28.105469 C 35.898438 27.347656 40.242188 26.25 42.082031 26.25 L 42.160156 26.25 C 46.691406 26.28125 48.097656 27.5625 49.011719 31.753906 C 49.675781 34.832031 50.015625 39.625 50 42.082031 C 49.984375 47.464844 48.6875 51.175781 47.726562 53.664062 L 47.417969 54.46875 C 47.1875 55.132812 46.90625 55.75 46.660156 56.324219 C 46.414062 56.925781 46.195312 57.453125 46.042969 57.917969 C 47 58.132812 47.757812 58.441406 48.269531 58.660156 L 48.5625 58.796875 C 48.65625 58.84375 48.746094 58.875 48.824219 58.9375 C 50.511719 59.957031 50 62.308594 50 64.164062 C 50 65.710938 50.046875 71.863281 50 77.722656 C 50.171875 80.257812 50.820312 82.394531 51.375 83.953125 C 52.195312 86.152344 54.035156 89.414062 57.917969 89.582031 C 60.976562 89.722656 65.398438 88.113281 65.832031 81.683594 L 65.832031 65.847656 C 66.128906 60.5625 72.1875 58.457031 73.75 57.296875 C 73.535156 57.003906 72.699219 54.421875 71.816406 53.046875 L 71.648438 52.722656 C 71.523438 52.410156 71.199219 51.855469 70.796875 51.113281 C 68.460938 46.875 63.574219 36.007812 66.914062 30.441406 C 68.367188 27.996094 69.792969 26.589844 73.75 26.25 C 72.140625 21.65625 67.6875 10.648438 53.957031 10.417969 Z M 27.980469 10.417969 C 20.574219 10.695312 10.417969 15.289062 10.417969 30.253906 C 10.417969 40.398438 17.3125 69.792969 28.199219 69.792969 C 28.691406 69.792969 29.1875 69.621094 29.699219 69.359375 C 28.738281 68.523438 28.042969 67.441406 27.949219 66.019531 C 27.78125 63.144531 29.867188 61.117188 34.367188 59.972656 C 34.585938 59.941406 35.726562 59.601562 38.25 58.179688 C 36.917969 57.605469 35.527344 56.835938 34.382812 55.644531 C 31.246094 52.367188 29.652344 47.773438 30.238281 43.644531 C 30.796875 39.625 30.472656 35.683594 30.300781 33.578125 L 30.285156 33.378906 L 30.238281 32.683594 L 30.148438 31.230469 L 30.269531 27.332031 C 31.554688 20.746094 34.242188 15.644531 38.125 12.117188 C 35.1875 11.160156 31.492188 10.292969 27.980469 10.417969 Z M 69.527344 10.433594 C 68.769531 10.449219 68.058594 10.507812 67.363281 10.585938 C 71.335938 13.355469 74.988281 17.824219 77.476562 24.949219 L 77.644531 30.394531 C 77.660156 30.578125 77.691406 30.765625 77.722656 30.949219 C 77.847656 31.628906 78.003906 32.558594 77.878906 33.671875 C 77.722656 34.941406 77.570312 36.238281 77.523438 37.539062 C 77.492188 38.820312 77.660156 40.074219 77.847656 41.402344 C 78.1875 43.769531 78.003906 46.164062 77.261719 48.730469 L 76.101562 52.722656 C 76.410156 53.402344 76.703125 54.097656 76.996094 54.824219 C 77.058594 55.007812 77.121094 55.148438 77.167969 55.273438 L 78.464844 57.066406 C 85.453125 50.914062 89.582031 38.03125 89.582031 24.765625 C 89.582031 22.199219 88.886719 20.21875 87.992188 19.074219 C 82.6875 12.289062 75.34375 10.339844 69.527344 10.433594 Z M 42.082031 30.207031 C 40.96875 30.207031 37.136719 31.121094 35.683594 31.738281 L 34.257812 32.34375 C 34.230469 32.371094 34.199219 32.402344 34.183594 32.433594 C 34.199219 32.652344 34.230469 32.914062 34.257812 33.238281 C 34.429688 35.511719 34.769531 39.734375 34.152344 44.203125 C 33.734375 47.140625 34.925781 50.480469 37.257812 52.90625 C 38.589844 54.296875 40.96875 55.210938 42.703125 55.597656 C 42.808594 55.320312 42.902344 55.085938 43.027344 54.777344 C 43.242188 54.253906 43.492188 53.695312 43.722656 53.078125 L 44.03125 52.242188 C 44.726562 50.433594 46.027344 47.046875 46.042969 42.066406 C 46.058594 40.429688 45.871094 37.445312 45.53125 34.894531 C 45.484375 34.957031 45.453125 34.957031 45.421875 35.03125 C 44.835938 35.621094 43.921875 36.144531 42.917969 35.992188 C 41.277344 35.726562 40.027344 33.734375 40.105469 32.992188 C 40.195312 32.265625 41.605469 31.878906 43.242188 32.140625 C 43.800781 32.234375 44.324219 32.402344 44.757812 32.589844 C 44.914062 32.714844 45.035156 32.789062 45.175781 32.882812 C 45.160156 32.789062 45.160156 32.683594 45.128906 32.589844 C 44.757812 30.84375 44.449219 30.515625 44.433594 30.503906 C 44.417969 30.488281 44 30.222656 42.082031 30.207031 Z M 73.6875 30.253906 C 71.769531 30.488281 71.230469 30.996094 70.535156 32.125 C 71.878906 32.125 72.851562 32.574219 72.960938 33.410156 C 73.070312 34.121094 72.464844 34.800781 72.203125 35.0625 C 71.648438 35.589844 70.953125 35.945312 70.253906 36.023438 C 70.132812 36.054688 70.007812 36.054688 69.867188 36.054688 C 69.839844 36.054688 69.824219 36.039062 69.792969 36.039062 C 70.023438 39.300781 71.492188 43.707031 73.457031 47.632812 C 73.996094 45.746094 74.214844 43.90625 73.9375 41.960938 C 73.734375 40.523438 73.519531 39.039062 73.566406 37.414062 C 73.625 35.945312 73.78125 34.570312 73.9375 33.222656 C 74.058594 32.1875 73.65625 31.230469 73.6875 30.253906 Z M 82.378906 60.019531 C 82.070312 59.972656 81.636719 60.003906 81.109375 60.113281 C 78.621094 60.621094 76.964844 60.761719 75.746094 60.683594 C 75.3125 60.976562 74.863281 61.257812 74.304688 61.566406 C 72.078125 62.789062 70.101562 64.054688 69.839844 65.832031 L 69.839844 68.136719 C 72.449219 68.261719 75.945312 66.636719 77.957031 65.710938 C 81.742188 63.960938 84.589844 60.3125 82.378906 60.019531 Z M 41.433594 60.933594 C 39.253906 62.230469 36.796875 63.515625 35.15625 63.855469 C 29.34375 65.398438 32.945312 67.210938 35 67.410156 C 37.195312 67.953125 42.578125 69.171875 46.042969 66.34375 C 46.042969 66.34375 46.042969 66.34375 46.042969 66.328125 L 46.042969 64.164062 C 46.042969 63.746094 46.058594 63.328125 46.089844 62.878906 C 46.089844 62.648438 46.101562 62.339844 46.101562 62.058594 C 45.839844 61.953125 45.515625 61.859375 45.160156 61.765625 Z M 41.433594 60.933594 "/>
</g>
</svg>
